<?xml version="1.0" encoding="UTF-8" standalone="no"?>
<svg
   version="1.1"
   id="svg2"
   width="98.25956"
   height="126.31313"
   viewBox="0 0 98.259561 126.31313"
   xmlns="http://www.w3.org/2000/svg"
   xmlns:svg="http://www.w3.org/2000/svg">
  <defs
     id="defs6">
    <clipPath
       clipPathUnits="userSpaceOnUse"
       id="clipPath24">
      <path
         d="M 0,611.59 H 864.964 V 0 H 0 Z"
         id="path22" />
    </clipPath>
    <clipPath
       clipPathUnits="userSpaceOnUse"
       id="clipPath140">
      <path
         d="M 0,611.59 H 864.964 V 0 H 0 Z"
         id="path138" />
    </clipPath>
    <clipPath
       clipPathUnits="userSpaceOnUse"
       id="clipPath272">
      <path
         d="M 0,611.59 H 864.964 V 0 H 0 Z"
         id="path270" />
    </clipPath>
    <clipPath
       clipPathUnits="userSpaceOnUse"
       id="clipPath352">
      <path
         d="M 0,611.59 H 864.964 V 0 H 0 Z"
         id="path350" />
    </clipPath>
    <clipPath
       clipPathUnits="userSpaceOnUse"
       id="clipPath432">
      <path
         d="M 0,611.59 H 864.964 V 0 H 0 Z"
         id="path430" />
    </clipPath>
    <clipPath
       clipPathUnits="userSpaceOnUse"
       id="clipPath520">
      <path
         d="M 0,611.59 H 864.964 V 0 H 0 Z"
         id="path518" />
    </clipPath>
    <clipPath
       clipPathUnits="userSpaceOnUse"
       id="clipPath600">
      <path
         d="M 0,611.59 H 864.964 V 0 H 0 Z"
         id="path598" />
    </clipPath>
    <clipPath
       clipPathUnits="userSpaceOnUse"
       id="clipPath682">
      <path
         d="M 0,611.59 H 864.964 V 0 H 0 Z"
         id="path680" />
    </clipPath>
    <clipPath
       clipPathUnits="userSpaceOnUse"
       id="clipPath762">
      <path
         d="M 0,611.59 H 864.964 V 0 H 0 Z"
         id="path760" />
    </clipPath>
  </defs>
  <g
     id="g8"
     transform="matrix(1.3333333,0,0,-1.3333333,-270.86879,209.14207)">
    <g
       id="g134">
      <g
         id="g136"
         clip-path="url(#clipPath140)">
        <g
           id="g254"
           transform="translate(272.6356,101.4488)">
          <path
             d="m 0,0 c -5.488,16.538 -29.156,14.111 -42.101,7.652 -10e-4,-0.001 -13.667,-40.069 -13.667,-40.069 0.03,-6.081 9.837,-2.39 13.76,-1.903 C -24.669,-29.759 1.496,-16.598 0,0 m -68.328,-30.609 c 1.912,1.05 5.915,-6.867 7.913,-1.755 5.455,21.482 14.887,45.368 23.341,65.925 0,0 5.408,13.128 5.408,13.128 0.3,0.728 3.811,-0.727 3.433,-1.624 -1.238,-3.36 -11.218,-27.079 -12.256,-32.039 56.091,9.6 52.938,61.258 -11.937,28.602 -3.968,-2.565 -8.653,-7.476 -7.727,-12.406 -15.667,6.935 24.45,29.468 44.547,25.781 3.263,-0.126 10.258,-1.706 14.2,-5.108 C 16.709,33.162 -17.365,17.979 -18.577,16.133 51.243,-0.996 -60.973,-61.688 -68.328,-30.609"
             style="fill:#231f20;fill-opacity:1;fill-rule:nonzero;stroke:none"
             id="path256" />
        </g>
        <g
           id="g258"
           transform="translate(217.1736,108.4929)">
          <path
             d="m 0,0 c 0,-3.872 -3.139,-7.011 -7.011,-7.011 -3.872,0 -7.011,3.139 -7.011,7.011 0,3.872 3.139,7.011 7.011,7.011 C -3.139,7.011 0,3.872 0,0"
             style="fill:#231f20;fill-opacity:1;fill-rule:nonzero;stroke:none"
             id="path260" />
        </g>
      </g>
    </g>
  </g>
</svg>
