<svg xmlns="http://www.w3.org/2000/svg" viewBox="46.40 119.23 478.23 253.33" width="478.23" height="253.33">
<path fill="#ffffff" d="M 242.801 241.434 C 241.25 240.054 239.804 238.767 238.787 239.325 C 248.885 281.995 402.953 198.667 307.093 175.151 C 307.37 174.728 308.899 173.798 311.141 172.434 C 322.355 165.612 351.397 147.942 330.669 128.796 C 325.255 124.125 315.651 121.956 311.171 121.783 C 283.581 116.72 228.501 147.657 250.01 157.179 C 248.739 150.411 255.171 143.668 260.619 140.147 C 349.69 95.311 354.019 166.236 277.009 179.416 C 278.433 172.605 292.135 140.04 293.835 135.428 C 294.355 134.196 289.534 132.199 289.122 133.197 L 281.697 151.223 C 270.09 179.447 257.141 212.24 249.651 241.735 C 247.97 246.034 245.255 243.618 242.801 241.434 Z M 256.451 187.629 C 256.451 192.945 252.142 197.254 246.826 197.254 C 241.51 197.254 237.201 192.945 237.201 187.629 C 237.201 182.313 241.51 178.003 246.826 178.003 C 252.142 178.003 256.451 182.313 256.451 187.629 Z M 274.795 186.795 C 292.569 177.925 325.063 174.593 332.598 197.3 C 334.653 220.088 298.729 238.157 274.923 244.42 C 273.846 244.554 272.444 244.863 270.892 245.207 C 264.686 246.579 256.064 248.485 256.03 241.808 C 256.03 241.808 274.794 186.796 274.795 186.795 Z M 186.077 315.361 L 177.982 315.76 C 176.785 315.819 176.014 316.268 175.678 317.429 C 172.146 323.14 168.934 328.712 165.787 334.651 C 165.563 334.847 164.718 335.224 164.578 334.971 L 163.809 333.584 L 173.922 316.221 C 169.525 316.305 165.921 316.899 161.87 317.856 L 160.694 316.755 C 160.382 316.461 161.587 315.609 162.067 315.556 L 175.291 314.08 L 181.414 305.109 C 184.49 300.603 187.645 296.32 191.155 292.095 C 192.909 289.984 194.79 288.28 196.818 286.291 C 197.186 285.932 198.339 285.712 198.811 285.9 C 199.351 286.116 200.222 287.404 200.109 288.02 L 198.945 294.371 L 194.859 312.975 L 199.862 313.547 C 200.079 313.571 200.657 314.336 200.487 314.488 C 200.258 314.692 199.566 315.071 199.199 315.08 L 194.317 315.197 L 190.183 334.303 C 189.989 335.204 190.47 336.731 190.845 337.581 C 190.954 337.773 190.047 338.636 189.715 338.547 C 188.671 338.265 187.871 336.399 188.086 335.049 C 189.054 328.952 190.226 323.317 191.645 317.309 C 191.754 316.845 191.681 315.915 191.597 315.089 L 186.077 315.361 Z M 283.921 329.615 C 284.986 329.609 286.79 330.589 286.502 331.317 C 286.102 332.322 284.593 331.89 283.964 331.277 C 274.561 330.721 265.36 332.435 256.813 336.45 C 256.116 336.729 255.185 336.459 254.813 335.867 C 254.442 335.278 255.116 334.151 255.773 333.881 L 257.526 333.157 L 263.42 317.895 L 275.629 286.957 L 276.948 286.125 C 277.304 285.901 277.952 287.23 278.013 287.615 L 273.12 299.286 L 267.493 313.649 L 262.69 325.73 L 260.388 332.397 C 265.69 331.266 270.137 330.193 275.214 329.667 L 283.921 329.615 Z M 81.585 299.572 L 74.1 318.514 C 72.253 323.183 70.804 327.616 69.429 332.682 C 72.962 332.611 75.701 331.446 78.706 330.179 C 84.797 327.612 89.812 323.408 94.206 318.562 C 100.336 311.804 106.52 299.146 100.201 292.623 C 96.417 288.718 90.648 287.994 85.161 288.664 C 78.945 289.424 73.234 291.251 68.354 295.134 C 65.271 297.588 64.862 299.319 64.62 300.342 C 64.474 300.963 64.389 301.323 63.804 301.424 C 61.5 301.823 61.3 297.686 67.214 293.182 C 71.984 289.548 77.604 287.94 83.45 286.572 C 86.864 285.774 94.456 286.86 97.98 288.53 C 107.865 293.208 106.161 304.751 100.726 313.68 C 96.134 321.222 89.798 327.047 81.905 330.998 C 78.58 332.662 75.177 334.051 71.485 334.739 C 70.126 334.992 68.877 335.444 67.893 336.184 C 65.95 334.502 63.953 335.162 63.18 333.594 C 62.921 333.066 63.39 331.531 63.817 331.608 C 64.861 332.1 66.132 332.64 66.877 332.824 L 69.057 325.675 L 74.658 310.462 L 81.616 292.248 C 81.868 291.587 82.456 291.063 83.028 291.046 C 83.522 291.031 84.25 292.171 84.086 292.626 L 81.585 299.572 Z M 373.665 331.883 C 373.155 331.382 372.726 330.96 372.244 331.244 C 371.328 331.784 372.455 333.7 374.794 334.912 L 376.534 336.188 C 378.027 335.71 379.387 335.447 380.935 335.515 C 389.995 335.914 406.463 327.071 408.046 318.28 C 408.842 313.859 406.763 309.862 402.744 308.575 L 397.962 307.044 L 397.059 306.7 C 396.83 306.614 397.44 306.25 398.479 305.632 C 401.492 303.838 408.114 299.895 408.38 294.303 C 408.479 292.219 407.22 290.007 405.623 288.972 C 402.094 286.69 398.331 286.804 394.354 286.686 C 394.227 286.682 394.103 286.677 393.981 286.673 C 393.027 286.639 392.211 286.61 391.327 286.855 C 384.862 288.64 376.916 291.288 373.886 297.03 C 373.624 297.526 373.824 298.912 374.171 299.288 C 374.518 299.666 375.448 299.812 376.322 299.827 C 375.859 297.239 376.674 295.642 378.655 294.296 C 391.279 285.726 407.048 287.063 406.399 294.256 C 405.774 301.198 393.686 306.358 386.362 308.168 C 386.742 306.015 387.387 304.384 388.108 302.583 L 392.058 292.712 C 392.247 292.242 392.236 291.328 392.095 290.908 C 391.978 290.56 390.679 290.274 390.53 290.656 L 387.832 297.55 L 382.912 310.386 L 381.407 314.811 C 379.355 320.846 377.464 326.634 376.006 332.956 C 374.972 333.167 374.263 332.471 373.665 331.883 Z M 184.209 313.651 L 192.567 313.299 L 197.803 290.02 C 197.797 289.974 197.791 289.918 197.784 289.854 C 197.738 289.452 197.662 288.772 197.455 288.816 L 196.337 289.055 C 192.27 293.74 188.411 298.385 184.909 303.501 L 178.134 313.516 C 179.858 313.977 181.191 313.871 182.691 313.751 C 183.174 313.713 183.673 313.673 184.209 313.651 Z M 468.345 335.256 L 466.247 333.655 C 466.29 328.865 467.258 324.131 468.631 319.487 C 468.332 319.582 468.015 319.658 467.679 319.713 C 467.418 318.3 468.137 317.06 469.255 316.239 L 469.789 315.846 C 471.175 311.742 472.776 307.717 474.221 303.799 L 478.931 292.295 C 478.819 291.951 477.835 291.16 477.519 291.413 L 476.454 292.265 L 469.707 309.505 C 467.633 315.783 465.605 321.835 464.606 328.363 C 463.742 334.013 465.603 337.239 467.115 336.544 C 467.518 336.36 468.209 335.605 468.345 335.256 Z M 440.478 324.944 C 439.785 325.524 437.93 325.426 437.378 324.946 C 434.869 322.76 437.209 319.036 439.738 316.048 C 442.305 313.018 445.459 311.376 448.265 313.766 C 448.962 313.432 449.739 313.168 450.569 313.036 C 450.65 314.478 450.395 315.526 449.859 316.71 C 448.598 319.491 447.971 322.6 449.377 323.14 C 450.978 323.754 456.281 319.679 458.059 316.752 L 460.683 309.899 L 467.709 292.568 C 467.883 292.14 468.233 291.706 468.515 291.526 C 468.798 291.347 469.903 291.442 469.871 291.768 L 469.718 293.386 C 465.493 302.799 461.941 312.206 458.717 321.996 C 457.637 324.991 456.949 328.188 456.946 331.168 C 457.478 331.667 457.983 332.179 458.113 332.534 C 458.242 332.888 457.435 333.64 457.065 333.563 C 454.419 333.009 455.085 329.417 455.631 326.476 C 455.714 326.029 455.794 325.597 455.859 325.192 L 456.498 321.243 C 456.39 321.327 456.281 321.412 456.171 321.497 C 453.21 323.802 449.901 326.378 447.382 324.323 C 446.67 323.742 446.628 322.813 446.589 321.97 C 446.556 321.243 446.526 320.58 446.074 320.255 L 440.478 324.944 Z M 410.543 325.069 C 407.707 323.931 410.049 317.946 414.518 314.071 C 416.51 312.343 419.182 312.079 421.033 313.891 C 421.109 313.853 421.186 313.815 421.262 313.776 C 421.829 313.489 422.377 313.212 422.739 313.282 C 423.8 313.49 423.337 314.69 422.69 316.364 C 421.983 318.194 421.057 320.592 421.662 322.885 C 422.197 323.649 424.173 323.231 425.018 322.594 C 427.569 320.901 429.727 318.955 431.674 316.654 L 435.967 304.462 C 435.987 304.407 436.133 303.425 435.966 303.434 L 434.865 303.497 L 429.673 303.851 L 424.226 304.222 C 423.903 304.245 423.245 302.951 423.585 302.862 C 425.371 302.398 428.429 302.075 430.419 301.971 L 435.283 301.715 C 436.187 301.669 437.179 301.487 437.577 300.547 L 441.282 291.765 C 441.69 291.725 442.273 291.799 442.542 291.946 C 442.81 292.093 442.901 293.294 442.758 293.634 L 439.565 301.238 L 454.313 301.353 C 454.578 301.947 453.819 302.898 453.287 302.902 L 438.871 303.017 C 434.999 312.166 431.958 321.178 429.727 330.762 C 429.241 332.847 429.301 334.917 429.683 336.935 C 425.686 339.287 427.509 329.994 429.178 324.422 C 429.49 323.378 429.643 322.363 429.733 321.147 C 429.555 321.286 429.376 321.427 429.195 321.568 C 426.141 323.963 422.754 326.619 420.386 324.551 C 419.585 323.85 419.561 322.589 419.31 321.414 L 419.15 320.666 C 419.047 320.183 418.345 320.835 417.322 321.785 C 415.548 323.433 412.807 325.978 410.543 325.069 Z M 403.302 310.84 C 404.782 311.726 406.163 313.36 406.322 315.146 C 407.096 323.874 394.028 330.795 385.372 333.192 C 382.862 333.887 380.744 334.111 378.067 333.62 L 379.587 327.06 L 384.914 311.498 C 390.82 308.532 397.572 307.415 403.302 310.84 Z M 491.715 318.397 L 494.224 322.692 L 489.554 327.382 C 488.727 328.212 488.187 330.712 489.091 331.402 C 491.086 332.922 493.399 331.608 494.912 330.354 C 497.152 328.498 497.536 326.144 496.959 323.421 L 506.971 317.721 C 507.311 317.528 507.952 316.55 507.626 316.457 L 506.411 316.108 L 496.463 321.49 C 494.795 320.505 493.084 317.464 493.483 315.824 C 493.948 313.916 497.124 312.134 497.747 312.793 L 499.098 314.221 C 499.566 314.173 500.354 312.788 500.112 312.248 C 499.902 311.777 499.03 310.86 498.455 310.749 C 495.407 310.162 492.666 312.389 491.568 315.209 C 490.306 318.454 479.292 325.922 476.452 323.874 C 475.368 323.092 475.672 320.502 476.107 320.372 L 477.448 319.97 C 480.502 319.056 483.464 317.9 484.314 314.553 C 484.51 313.782 483.375 312.402 482.654 312.2 C 479.382 311.281 475.032 316.17 473.807 320.621 C 473.318 322.393 474.042 324.789 475.944 325.461 C 480.689 327.137 486.002 322.923 490.364 319.462 C 490.826 319.096 491.277 318.738 491.715 318.397 Z M 117.237 314.806 C 117.394 314.863 117.549 314.92 117.704 314.971 C 117.666 315.389 117.717 315.817 117.866 316.042 C 118.118 316.422 119.307 316.631 119.741 316.288 C 120.661 315.562 120.95 314.523 120.418 313.924 C 120.392 313.895 120.364 313.866 120.336 313.839 C 120.377 313.57 120.353 313.35 120.221 313.322 L 118.606 312.972 C 118.251 312.896 117.883 312.792 117.507 312.687 C 116.064 312.281 114.517 311.846 113.225 312.79 L 108.773 316.044 L 109.529 313.394 C 109.67 312.899 109.366 311.852 108.942 311.655 C 108.527 311.463 107.438 311.96 107.29 312.395 L 102.974 325.084 C 102.735 325.784 102.971 327.018 103.485 327.258 C 103.925 327.463 105.249 327.028 105.403 326.542 C 106.779 322.238 109.027 318.219 112.721 315.466 C 114.802 313.914 116.07 314.378 117.237 314.806 Z M 279.845 321.736 C 279.605 323.18 280.545 325.325 282.396 324.884 C 285.181 324.217 287.179 322.141 289.055 319.991 C 289.345 321.603 289.495 323.716 290.8 324.459 C 292.881 325.643 295.264 324.821 296.939 323.492 L 300.035 321.035 C 300.291 322.887 300.371 323.847 301.473 324.783 C 302.171 325.376 303.943 325.44 304.815 324.697 L 310.931 319.488 C 310.501 322.448 311.532 325.689 314.397 325.584 C 317.121 325.483 319.296 323.427 321.104 321.657 C 321.361 321.837 321.74 322.103 321.834 322.168 L 320.707 326.032 C 320.576 326.48 321.34 327.475 321.764 327.479 C 322.189 327.484 323.077 326.904 323.203 326.499 C 325.217 319.987 330.523 312.059 335.672 314.984 C 336.096 315.227 337.279 315.003 337.669 314.835 C 338.061 314.667 338.228 313.575 338.069 313.272 L 333.655 312.481 C 331.484 312.093 329.806 313.417 328.083 314.776 C 327.644 315.123 327.202 315.471 326.748 315.795 C 326.629 315.111 326.897 314.399 327.135 313.766 C 327.463 312.892 327.735 312.169 326.853 311.88 C 325.634 311.482 325.194 312.641 324.594 314.225 C 324.194 315.281 323.723 316.525 322.901 317.624 C 320.597 320.707 314.869 324.772 313.465 323.368 C 312.087 321.988 313.321 318.027 314.619 315.085 C 314.78 314.72 314.704 313.933 314.481 313.621 C 314.256 313.308 313.011 313.517 312.724 313.876 L 309.156 318.341 L 304.728 322.672 C 304.392 323.001 303.392 323.331 302.923 323.321 C 302.532 323.312 302.185 322.16 302.256 321.705 C 302.666 319.086 303.753 317.255 304.543 315.926 C 305.299 314.653 305.781 313.841 305.135 313.236 C 304.841 312.963 303.661 313.176 303.441 313.548 L 301.551 316.728 C 299.559 320.076 293.645 324.325 292.233 322.992 C 291.948 322.724 291.495 321.716 291.593 321.313 L 293.073 315.303 C 293.173 314.893 293.327 313.632 292.949 313.639 L 291.311 313.668 C 289.919 312.607 287.976 312.191 286.125 313.129 C 282.877 314.779 280.452 318.081 279.845 321.736 Z M 242.605 318.412 C 239.726 320.81 235.339 324.465 233.221 322.849 C 232.684 320.02 233.725 317.132 235.06 314.649 C 235.276 314.248 234.805 312.696 234.38 312.825 L 232.675 313.343 C 228.177 311.383 225.661 314.232 222.877 317.383 C 220.815 319.717 218.607 322.218 215.337 323.055 C 214.055 321.794 214.228 320.011 214.395 318.291 C 214.572 316.469 214.742 314.718 213.167 313.735 C 212.129 313.088 210.231 313.809 209.431 314.564 L 204.396 319.312 L 206.203 313.771 C 206.361 313.287 205.751 311.996 205.337 312.207 L 203.819 312.977 L 200.232 324.861 C 200.329 325.351 200.636 326.545 201.039 326.457 L 202.483 326.139 C 204.765 322.332 207.211 319.051 210.319 315.919 L 211.845 315.608 C 212.199 315.537 212.616 316.743 212.548 317.151 C 212.015 320.36 211.62 323.513 214.395 324.605 C 215.344 324.977 216.941 324.821 217.821 324.265 L 220.831 322.364 C 221.216 323.656 221.516 324.727 222.14 325.06 C 224.286 326.203 226.959 323.807 229.426 321.595 C 229.75 321.305 230.071 321.017 230.387 320.741 C 230.813 322.143 231.304 323.881 232.095 324.524 C 234.597 326.556 238.213 324.367 241.124 321.925 C 242.739 320.572 244.595 319.156 245.276 317.093 C 245.69 315.842 244.461 316.865 242.605 318.412 Z M 141.966 317.872 C 142.242 317.574 142.05 316.384 141.68 316.326 L 139.424 318.182 C 136.692 320.427 130.604 325.364 130.114 322.691 C 129.655 320.184 130.608 317.778 131.305 316.02 C 132.133 313.931 132.599 312.755 129.905 313.41 L 127.118 312.282 C 122.021 313.547 117.552 318.867 118.42 324.324 C 118.702 326.108 121.928 325.236 122.87 324.483 L 127.529 320.759 C 127.757 322.606 128.174 323.974 129.26 324.742 C 132.524 327.052 138.561 321.571 141.966 317.872 Z M 350.191 323.266 C 355.29 321.09 357.146 317.561 359.195 316.472 C 359.503 316.309 359.999 317.577 359.724 317.906 C 356.648 321.602 350.74 326.857 347.124 324.686 C 345.908 323.956 345.536 322.261 345.427 320.337 L 339.687 325.032 C 339.15 325.47 337.574 325.345 337.046 324.973 C 334.358 323.078 337.402 316.133 342.848 313.142 C 344.563 312.201 346.247 312.77 347.578 313.882 L 349.01 313.021 C 349.36 312.81 349.627 314.22 349.475 314.624 C 349.42 314.771 349.364 314.92 349.307 315.07 C 348.21 317.987 346.97 321.285 348.15 322.953 C 348.428 323.346 349.742 323.458 350.191 323.266 Z M 480.449 314.68 L 480.786 314.374 C 480.815 314.347 480.863 314.324 480.924 314.305 C 481.107 314.247 481.408 314.224 481.692 314.239 C 482.07 314.257 482.416 314.342 482.404 314.498 C 482.394 314.634 482.341 314.856 482.262 315.079 C 482.161 315.366 482.015 315.656 481.858 315.772 L 478.379 318.321 L 478.086 318.026 L 477.462 317.397 L 477.462 317.396 L 477.462 317.396 L 480.449 314.68 Z M 223.416 323.505 C 222.514 321.392 223.772 319.747 224.922 318.243 C 224.974 318.175 225.025 318.108 225.076 318.041 C 227.927 314.299 231.195 313.653 231.469 314.977 C 231.751 316.331 226.968 322.277 223.416 323.505 Z M 128.882 315.359 C 126.537 318.476 124.248 320.751 121.577 323.166 C 118.714 324.11 121.78 317.595 124.836 315.514 C 126.093 314.658 127.364 314.003 128.882 315.359 Z M 447.027 315.311 C 446.947 314.842 445.453 314.439 444.994 314.647 C 441.827 316.078 437.619 320.635 439.189 323.47 C 442.41 321.975 447.277 316.778 447.027 315.311 Z M 340.256 318.136 C 339.048 319.669 337.829 321.218 338.427 323.45 C 340.247 322.665 341.691 321.562 342.79 320.18 L 346.515 315.489 C 344.412 313.432 342.446 315.337 340.475 317.857 C 340.402 317.95 340.329 318.043 340.256 318.136 Z M 412.051 323.282 C 415.413 321.485 418.174 318.87 420.058 315.45 C 419.319 314.417 417.393 314.405 416.477 315.206 C 413.886 317.471 410.551 321.169 412.051 323.282 Z M 282.18 322.772 C 280.965 320.507 286.699 312.403 290.284 315.351 C 288.244 318.855 282.701 323.745 282.18 322.772 Z M 495.216 324.794 C 495.302 327.793 493.744 329.9 490.75 330.394 C 490.488 328.981 491.207 327.741 492.326 326.92 L 495.216 324.794 Z M 192.147 353.841 L 193.75 353.841 L 191.774 356.13 L 190.447 356.13 L 192.147 353.841 Z M 269.137 353.841 L 267.534 353.841 L 265.835 356.13 L 267.161 356.13 L 269.137 353.841 Z M 58.749 358.956 Q 57.12 357.127 54.398 357.127 Q 51.667 357.127 50.028 358.956 Q 48.399 360.776 48.399 363.845 Q 48.399 366.914 50.028 368.735 Q 51.667 370.555 54.398 370.555 Q 57.12 370.555 58.749 368.735 Q 60.379 366.905 60.379 363.845 Q 60.379 360.776 58.749 358.956 Z M 91.79 358.956 Q 90.16 357.127 87.438 357.127 Q 84.707 357.127 83.069 358.956 Q 81.439 360.776 81.439 363.845 Q 81.439 366.914 83.069 368.735 Q 84.707 370.555 87.438 370.555 Q 90.16 370.555 91.79 368.735 Q 93.419 366.905 93.419 363.845 Q 93.419 360.776 91.79 358.956 Z M 133.651 357.127 Q 136.373 357.127 138.003 358.956 Q 139.633 360.776 139.633 363.845 Q 139.633 366.905 138.003 368.735 Q 136.373 370.555 133.651 370.555 Q 130.921 370.555 129.282 368.735 Q 127.653 366.914 127.653 363.845 Q 127.653 360.776 129.282 358.956 Q 130.921 357.127 133.651 357.127 Z M 162.182 357.127 Q 164.904 357.127 166.534 358.956 Q 168.164 360.776 168.164 363.845 Q 168.164 366.905 166.534 368.735 Q 164.904 370.555 162.182 370.555 Q 159.451 370.555 157.813 368.735 Q 156.183 366.914 156.183 363.845 Q 156.183 360.776 157.813 358.956 Q 159.451 357.127 162.182 357.127 Z M 182.957 364.981 L 182.957 368.457 Q 182.377 368.795 181.648 368.96 Q 180.92 369.116 179.993 369.116 Q 177.617 369.116 176.421 367.79 Q 175.233 366.463 175.233 363.845 Q 175.233 361.219 176.421 359.892 Q 177.617 358.566 179.993 358.566 Q 181.198 358.566 182.29 358.982 Q 183.382 359.398 184.353 360.222 L 184.353 358.358 Q 183.391 357.751 182.246 357.439 Q 181.111 357.127 179.845 357.127 Q 176.811 357.127 175.095 358.904 Q 173.387 360.672 173.387 363.845 Q 173.387 367.009 175.095 368.787 Q 176.811 370.555 179.845 370.555 Q 181.232 370.555 182.455 370.191 Q 183.677 369.818 184.691 369.099 L 184.691 363.542 L 180.097 363.542 L 180.097 364.981 L 182.957 364.981 Z M 245.823 359.493 L 245.823 357.786 Q 244.835 357.456 243.89 357.292 Q 242.945 357.127 242.035 357.127 Q 239.911 357.127 238.697 358.115 Q 237.492 359.103 237.492 360.82 Q 237.492 362.302 238.368 363.134 Q 239.243 363.967 241.203 364.357 L 242.269 364.565 Q 243.604 364.833 244.185 365.371 Q 244.774 365.908 244.774 366.862 Q 244.774 367.954 243.959 368.544 Q 243.145 369.133 241.645 369.133 Q 240.657 369.133 239.634 368.83 Q 238.611 368.526 237.544 367.928 L 237.544 369.731 Q 238.654 370.139 239.686 370.347 Q 240.726 370.555 241.645 370.555 Q 244.081 370.555 245.338 369.584 Q 246.603 368.613 246.603 366.732 Q 246.603 365.154 245.667 364.218 Q 244.74 363.273 242.78 362.9 L 241.723 362.684 Q 240.284 362.415 239.764 361.981 Q 239.252 361.539 239.252 360.681 Q 239.252 359.658 240.024 359.103 Q 240.804 358.549 242.234 358.549 Q 243.058 358.549 243.942 358.783 Q 244.826 359.017 245.823 359.493 Z M 305.723 358.358 L 305.723 360.204 Q 304.839 359.381 303.833 358.973 Q 302.836 358.566 301.709 358.566 Q 299.49 358.566 298.311 359.927 Q 297.132 361.279 297.132 363.845 Q 297.132 366.403 298.311 367.764 Q 299.49 369.116 301.709 369.116 Q 302.836 369.116 303.833 368.709 Q 304.839 368.301 305.723 367.478 L 305.723 369.307 Q 304.804 369.931 303.773 370.243 Q 302.75 370.555 301.605 370.555 Q 298.667 370.555 296.976 368.761 Q 295.286 366.957 295.286 363.845 Q 295.286 360.724 296.976 358.93 Q 298.667 357.127 301.605 357.127 Q 302.767 357.127 303.79 357.439 Q 304.822 357.742 305.723 358.358 Z M 392.027 359.493 L 392.027 357.786 Q 391.039 357.456 390.094 357.292 Q 389.149 357.127 388.239 357.127 Q 386.115 357.127 384.902 358.115 Q 383.697 359.103 383.697 360.82 Q 383.697 362.302 384.572 363.134 Q 385.448 363.967 387.407 364.357 L 388.473 364.565 Q 389.808 364.833 390.389 365.371 Q 390.978 365.908 390.978 366.862 Q 390.978 367.954 390.164 368.544 Q 389.349 369.133 387.849 369.133 Q 386.861 369.133 385.838 368.83 Q 384.815 368.526 383.749 367.928 L 383.749 369.731 Q 384.858 370.139 385.89 370.347 Q 386.93 370.555 387.849 370.555 Q 390.285 370.555 391.542 369.584 Q 392.808 368.613 392.808 366.732 Q 392.808 365.154 391.871 364.218 Q 390.944 363.273 388.985 362.9 L 387.927 362.684 Q 386.488 362.415 385.968 361.981 Q 385.456 361.539 385.456 360.681 Q 385.456 359.658 386.228 359.103 Q 387.008 358.549 388.438 358.549 Q 389.262 358.549 390.146 358.783 Q 391.03 359.017 392.027 359.493 Z M 486.812 357.127 Q 489.534 357.127 491.164 358.956 Q 492.794 360.776 492.794 363.845 Q 492.794 366.905 491.164 368.735 Q 489.534 370.555 486.812 370.555 Q 484.081 370.555 482.443 368.735 Q 480.813 366.914 480.813 363.845 Q 480.813 360.776 482.443 358.956 Q 484.081 357.127 486.812 357.127 Z M 66.348 357.361 L 69.945 357.361 Q 73.708 357.361 75.468 358.93 Q 77.227 360.49 77.227 363.819 Q 77.227 367.165 75.459 368.735 Q 73.69 370.304 69.945 370.304 L 66.348 370.304 L 66.348 357.361 Z M 99.388 357.361 L 101.746 357.361 L 107.485 368.188 L 107.485 357.361 L 109.184 357.361 L 109.184 370.304 L 106.826 370.304 L 101.087 359.476 L 101.087 370.304 L 99.388 370.304 L 99.388 357.361 Z M 125.036 357.361 L 114.087 357.361 L 114.087 358.835 L 118.682 358.835 L 118.682 370.304 L 120.441 370.304 L 120.441 358.835 L 125.036 358.835 L 125.036 357.361 Z M 147.353 357.361 L 145.602 357.361 L 145.602 370.304 L 153.655 370.304 L 153.655 368.83 L 147.353 368.83 L 147.353 357.361 Z M 190.786 357.361 L 192.537 357.361 L 192.537 370.304 L 190.786 370.304 L 190.786 357.361 Z M 203.53 357.361 L 201.544 357.361 L 196.603 370.304 L 198.45 370.304 L 199.628 366.983 L 205.463 366.983 L 206.642 370.304 L 208.462 370.304 L 203.53 357.361 Z M 225.37 357.361 L 233.554 357.361 L 233.554 358.835 L 227.122 358.835 L 227.122 362.666 L 233.285 362.666 L 233.285 364.14 L 227.122 364.14 L 227.122 368.83 L 233.71 368.83 L 233.71 370.304 L 225.37 370.304 L 225.37 357.361 Z M 248.325 357.361 L 259.274 357.361 L 259.274 358.835 L 254.679 358.835 L 254.679 370.304 L 252.92 370.304 L 252.92 358.835 L 248.325 358.835 L 248.325 357.361 Z M 271.175 357.361 L 262.991 357.361 L 262.991 370.304 L 271.331 370.304 L 271.331 368.83 L 264.742 368.83 L 264.742 364.14 L 270.906 364.14 L 270.906 362.666 L 264.742 362.666 L 264.742 358.835 L 271.175 358.835 L 271.175 357.361 Z M 273.944 357.361 L 284.893 357.361 L 284.893 358.835 L 280.298 358.835 L 280.298 370.304 L 278.539 370.304 L 278.539 358.835 L 273.944 358.835 L 273.944 357.361 Z M 290.361 357.361 L 288.61 357.361 L 288.61 370.304 L 290.361 370.304 L 290.361 357.361 Z M 317.013 357.361 L 315.028 357.361 L 310.087 370.304 L 311.933 370.304 L 313.112 366.983 L 318.946 366.983 L 320.125 370.304 L 321.946 370.304 L 317.013 357.361 Z M 337.077 357.361 L 338.958 357.361 L 342.547 362.684 L 346.11 357.361 L 347.991 357.361 L 343.414 364.14 L 343.414 370.304 L 341.654 370.304 L 341.654 364.14 L 337.077 357.361 Z M 365.453 365.05 Q 364.925 364.426 364.361 364.235 Q 365.445 363.923 366.008 363.117 Q 366.58 362.311 366.58 361.089 Q 366.58 359.216 365.488 358.288 Q 364.396 357.361 362.177 357.361 L 358.224 357.361 L 358.224 370.304 L 359.975 370.304 L 359.975 364.833 L 361.882 364.833 Q 362.922 364.833 363.52 365.258 Q 364.127 365.683 364.769 366.983 L 366.424 370.304 L 368.306 370.304 L 366.528 366.767 Q 365.991 365.674 365.453 365.05 Z M 371.575 357.361 L 379.758 357.361 L 379.758 358.835 L 373.326 358.835 L 373.326 362.666 L 379.489 362.666 L 379.489 364.14 L 373.326 364.14 L 373.326 368.83 L 379.914 368.83 L 379.914 370.304 L 371.575 370.304 L 371.575 357.361 Z M 394.529 357.361 L 405.478 357.361 L 405.478 358.835 L 400.884 358.835 L 400.884 370.304 L 399.124 370.304 L 399.124 358.835 L 394.529 358.835 L 394.529 357.361 Z M 413.453 357.361 L 411.468 357.361 L 406.526 370.304 L 408.373 370.304 L 409.552 366.983 L 415.386 366.983 L 416.565 370.304 L 418.385 370.304 L 413.453 357.361 Z M 422.116 357.361 L 423.876 357.361 L 423.876 365.224 Q 423.876 367.304 424.63 368.223 Q 425.384 369.133 427.075 369.133 Q 428.757 369.133 429.511 368.223 Q 430.265 367.304 430.265 365.224 L 430.265 357.361 L 432.025 357.361 L 432.025 365.44 Q 432.025 367.972 430.768 369.263 Q 429.519 370.555 427.075 370.555 Q 424.621 370.555 423.364 369.263 Q 422.116 367.972 422.116 365.44 L 422.116 357.361 Z M 445.062 365.05 Q 444.534 364.426 443.97 364.235 Q 445.054 363.923 445.617 363.117 Q 446.189 362.311 446.189 361.089 Q 446.189 359.216 445.097 358.288 Q 444.005 357.361 441.786 357.361 L 437.832 357.361 L 437.832 370.304 L 439.584 370.304 L 439.584 364.833 L 441.491 364.833 Q 442.531 364.833 443.129 365.258 Q 443.736 365.683 444.378 366.983 L 446.033 370.304 L 447.914 370.304 L 446.137 366.767 Q 445.6 365.674 445.062 365.05 Z M 454.786 357.361 L 456.771 357.361 L 461.703 370.304 L 459.883 370.304 L 458.704 366.983 L 452.87 366.983 L 451.691 370.304 L 449.844 370.304 L 454.786 357.361 Z M 469.32 357.361 L 465.722 357.361 L 465.722 370.304 L 469.32 370.304 Q 473.065 370.304 474.833 368.735 Q 476.602 367.165 476.602 363.819 Q 476.602 360.49 474.842 358.93 Q 473.082 357.361 469.32 357.361 Z M 505.992 365.05 Q 505.464 364.426 504.9 364.235 Q 505.984 363.923 506.547 363.117 Q 507.119 362.311 507.119 361.089 Q 507.119 359.216 506.027 358.288 Q 504.935 357.361 502.716 357.361 L 498.762 357.361 L 498.762 370.304 L 500.514 370.304 L 500.514 364.833 L 502.421 364.833 Q 503.461 364.833 504.059 365.258 Q 504.666 365.683 505.308 366.983 L 506.963 370.304 L 508.844 370.304 L 507.067 366.767 Q 506.53 365.674 505.992 365.05 Z M 515.716 357.361 L 517.701 357.361 L 522.633 370.304 L 520.813 370.304 L 519.634 366.983 L 513.8 366.983 L 512.621 370.304 L 510.774 370.304 L 515.716 357.361 Z M 51.363 359.97 Q 52.49 358.549 54.398 358.549 Q 56.305 358.549 57.414 359.97 Q 58.533 361.392 58.533 363.845 Q 58.533 366.29 57.414 367.712 Q 56.305 369.133 54.398 369.133 Q 52.49 369.133 51.363 367.712 Q 50.245 366.29 50.245 363.845 Q 50.245 361.392 51.363 359.97 Z M 84.404 359.97 Q 85.531 358.549 87.438 358.549 Q 89.345 358.549 90.455 359.97 Q 91.573 361.392 91.573 363.845 Q 91.573 366.29 90.455 367.712 Q 89.345 369.133 87.438 369.133 Q 85.531 369.133 84.404 367.712 Q 83.285 366.29 83.285 363.845 Q 83.285 361.392 84.404 359.97 Z M 133.651 358.549 Q 131.744 358.549 130.617 359.97 Q 129.499 361.392 129.499 363.845 Q 129.499 366.29 130.617 367.712 Q 131.744 369.133 133.651 369.133 Q 135.559 369.133 136.668 367.712 Q 137.787 366.29 137.787 363.845 Q 137.787 361.392 136.668 359.97 Q 135.559 358.549 133.651 358.549 Z M 162.182 358.549 Q 160.275 358.549 159.148 359.97 Q 158.03 361.392 158.03 363.845 Q 158.03 366.29 159.148 367.712 Q 160.275 369.133 162.182 369.133 Q 164.089 369.133 165.199 367.712 Q 166.317 366.29 166.317 363.845 Q 166.317 361.392 165.199 359.97 Q 164.089 358.549 162.182 358.549 Z M 486.812 358.549 Q 484.905 358.549 483.778 359.97 Q 482.66 361.392 482.66 363.845 Q 482.66 366.29 483.778 367.712 Q 484.905 369.133 486.812 369.133 Q 488.719 369.133 489.829 367.712 Q 490.947 366.29 490.947 363.845 Q 490.947 361.392 489.829 359.97 Q 488.719 358.549 486.812 358.549 Z M 68.099 358.8 L 68.099 368.865 L 70.214 368.865 Q 72.893 368.865 74.133 367.651 Q 75.381 366.437 75.381 363.819 Q 75.381 361.219 74.133 360.014 Q 72.893 358.8 70.214 358.8 L 68.099 358.8 Z M 359.975 363.394 L 359.975 358.8 L 362.177 358.8 Q 363.442 358.8 364.084 359.381 Q 364.734 359.953 364.734 361.089 Q 364.734 362.224 364.084 362.814 Q 363.442 363.394 362.177 363.394 L 359.975 363.394 Z M 439.584 363.394 L 439.584 358.8 L 441.786 358.8 Q 443.051 358.8 443.693 359.381 Q 444.343 359.953 444.343 361.089 Q 444.343 362.224 443.693 362.814 Q 443.051 363.394 441.786 363.394 L 439.584 363.394 Z M 467.473 368.865 L 467.473 358.8 L 469.589 358.8 Q 472.267 358.8 473.507 360.014 Q 474.755 361.219 474.755 363.819 Q 474.755 366.437 473.507 367.651 Q 472.267 368.865 469.589 368.865 L 467.473 368.865 Z M 500.514 363.394 L 500.514 358.8 L 502.716 358.8 Q 503.981 358.8 504.623 359.381 Q 505.273 359.953 505.273 361.089 Q 505.273 362.224 504.623 362.814 Q 503.981 363.394 502.716 363.394 L 500.514 363.394 Z M 200.157 365.527 L 202.533 359.086 L 204.917 365.527 L 200.157 365.527 Z M 313.641 365.527 L 316.016 359.086 L 318.4 365.527 L 313.641 365.527 Z M 410.081 365.527 L 412.456 359.086 L 414.84 365.527 L 410.081 365.527 Z M 455.774 359.086 L 453.399 365.527 L 458.158 365.527 L 455.774 359.086 Z M 516.704 359.086 L 514.328 365.527 L 519.088 365.527 L 516.704 359.086 Z"/>
</svg>
