<svg xmlns="http://www.w3.org/2000/svg" viewBox="32.20 417.26 448.35 130.31" width="448.35" height="130.31">
<path fill="#231f20" d="M 39.643 535.999 C 38.137 534.658 36.731 533.408 35.744 533.95 C 45.551 575.389 195.172 494.466 102.079 471.627 C 102.348 471.217 103.833 470.314 106.009 468.99 C 116.899 462.364 145.104 445.206 124.973 426.611 C 119.717 422.075 110.391 419.969 106.04 419.801 C 79.244 414.883 25.755 444.929 46.644 454.175 C 45.409 447.602 51.656 441.054 56.947 437.634 C 143.447 394.093 147.651 462.97 72.863 475.77 C 74.247 469.157 87.553 437.531 89.204 433.051 C 89.708 431.855 85.027 429.915 84.627 430.886 L 77.416 448.39 C 66.144 475.799 53.568 507.647 46.295 536.29 C 44.662 540.466 42.026 538.12 39.643 535.999 Z M 242.452 474.674 L 236.773 474.954 C 235.933 474.996 235.392 475.31 235.157 476.125 C 232.678 480.132 230.426 484.04 228.218 488.206 C 228.061 488.344 227.468 488.608 227.37 488.43 L 226.83 487.457 L 233.925 475.277 C 230.84 475.337 228.312 475.753 225.47 476.425 L 224.645 475.652 C 224.426 475.446 225.272 474.849 225.609 474.81 L 234.885 473.776 L 239.18 467.482 C 241.338 464.321 243.552 461.317 246.014 458.353 C 247.244 456.872 248.564 455.677 249.986 454.282 C 250.244 454.029 251.053 453.876 251.385 454.008 C 251.764 454.158 252.374 455.062 252.294 455.494 L 251.478 459.949 L 248.612 473 L 252.122 473.401 C 252.274 473.418 252.68 473.956 252.56 474.061 C 252.4 474.205 251.914 474.47 251.657 474.477 L 248.232 474.558 L 245.332 487.962 C 245.196 488.594 245.533 489.665 245.796 490.261 C 245.873 490.397 245.237 491.001 245.004 490.938 C 244.272 490.742 243.71 489.432 243.861 488.485 C 244.54 484.209 245.362 480.256 246.357 476.041 C 246.434 475.716 246.382 475.062 246.324 474.484 L 242.452 474.674 Z M 311.089 484.673 C 311.836 484.669 313.102 485.356 312.9 485.867 C 312.62 486.572 311.56 486.269 311.118 485.839 C 304.524 485.449 298.069 486.652 292.073 489.468 C 291.584 489.663 290.93 489.475 290.669 489.06 C 290.409 488.647 290.882 487.856 291.344 487.665 L 292.573 487.157 L 296.708 476.452 L 305.272 454.748 L 306.197 454.165 C 306.448 454.007 306.902 454.94 306.945 455.211 L 303.512 463.397 L 299.565 473.472 L 296.196 481.948 L 294.58 486.624 C 298.301 485.832 301.42 485.079 304.981 484.709 L 311.089 484.673 Z M 169.151 463.598 L 163.9 476.885 C 162.604 480.161 161.588 483.272 160.623 486.825 C 163.103 486.776 165.024 485.957 167.131 485.069 C 171.404 483.268 174.921 480.32 178.005 476.92 C 182.304 472.178 186.643 463.298 182.209 458.724 C 179.555 455.984 175.508 455.476 171.659 455.946 C 167.299 456.48 163.292 457.761 159.869 460.485 C 157.707 462.206 157.42 463.421 157.25 464.138 C 157.147 464.574 157.087 464.826 156.677 464.897 C 155.061 465.177 154.92 462.274 159.069 459.114 C 162.416 456.566 166.357 455.438 170.459 454.478 C 172.853 453.918 178.179 454.681 180.652 455.852 C 187.585 459.134 186.391 467.232 182.577 473.496 C 179.357 478.786 174.912 482.872 169.375 485.642 C 167.043 486.81 164.656 487.785 162.065 488.268 C 161.113 488.445 160.236 488.762 159.545 489.281 C 158.183 488.101 156.781 488.565 156.24 487.465 C 156.057 487.094 156.388 486.017 156.687 486.072 C 157.419 486.417 158.311 486.796 158.833 486.924 L 160.363 481.909 L 164.292 471.237 L 169.172 458.461 C 169.349 457.997 169.761 457.629 170.163 457.617 C 170.509 457.606 171.02 458.406 170.905 458.725 L 169.151 463.598 Z M 374.044 486.264 C 373.687 485.913 373.385 485.617 373.047 485.817 C 372.405 486.195 373.195 487.539 374.835 488.39 L 376.057 489.285 C 377.103 488.949 378.058 488.765 379.143 488.813 C 385.499 489.091 397.053 482.889 398.162 476.722 C 398.721 473.621 397.262 470.817 394.443 469.914 L 391.087 468.841 L 390.455 468.599 C 390.295 468.538 390.723 468.283 391.453 467.848 C 393.568 466.589 398.209 463.824 398.397 459.902 C 398.466 458.441 397.583 456.889 396.462 456.163 C 393.987 454.562 391.347 454.642 388.557 454.558 C 388.47 454.555 388.385 454.552 388.301 454.549 C 387.629 454.526 387.057 454.506 386.434 454.678 C 381.899 455.93 376.325 457.787 374.199 461.815 C 374.015 462.162 374.155 463.135 374.399 463.399 C 374.642 463.665 375.295 463.767 375.907 463.778 C 375.583 461.962 376.154 460.841 377.545 459.898 C 386.401 453.885 397.462 454.823 397.007 459.87 C 396.569 464.738 388.089 468.358 382.951 469.629 C 383.218 468.118 383.67 466.975 384.177 465.71 L 386.947 458.786 C 387.079 458.457 387.073 457.815 386.973 457.521 C 386.89 457.277 385.979 457.075 385.875 457.343 L 383.982 462.179 L 380.531 471.183 L 379.475 474.289 C 378.035 478.522 376.71 482.582 375.686 487.018 C 374.961 487.165 374.464 486.677 374.044 486.264 Z M 241.141 473.474 L 247.005 473.228 L 250.678 456.897 C 250.674 456.863 250.669 456.82 250.663 456.773 C 250.631 456.49 250.577 456.022 250.433 456.053 L 249.649 456.22 C 246.796 459.508 244.089 462.766 241.632 466.354 L 236.88 473.38 C 238.09 473.702 239.024 473.628 240.077 473.545 C 240.415 473.518 240.766 473.49 241.141 473.474 Z M 440.463 488.631 L 438.991 487.507 C 439.053 480.262 442.139 473.196 444.584 466.563 L 447.888 458.494 C 447.809 458.251 447.12 457.696 446.897 457.875 L 446.151 458.472 L 441.417 470.567 C 439.963 474.97 438.54 479.215 437.84 483.795 C 437.233 487.759 438.539 490.02 439.6 489.534 C 439.883 489.404 440.367 488.875 440.463 488.631 Z M 420.913 481.397 C 420.428 481.805 419.127 481.735 418.739 481.398 C 416.979 479.865 418.62 477.253 420.395 475.157 C 422.195 473.03 424.408 471.879 426.376 473.555 C 426.865 473.321 427.411 473.137 427.992 473.043 C 428.049 474.055 427.871 474.79 427.495 475.621 C 426.609 477.573 426.169 479.753 427.156 480.131 C 428.28 480.562 431.999 477.703 433.247 475.651 L 435.087 470.842 L 440.016 458.686 C 440.139 458.385 440.384 458.079 440.581 457.954 C 440.78 457.829 441.555 457.895 441.533 458.125 L 441.425 459.259 C 438.461 465.862 435.969 472.461 433.708 479.33 C 432.951 481.43 432.468 483.673 432.465 485.763 C 432.839 486.113 433.193 486.471 433.284 486.721 C 433.375 486.97 432.809 487.497 432.549 487.443 C 430.694 487.055 431.161 484.537 431.543 482.474 C 431.602 482.16 431.658 481.856 431.704 481.571 L 432.152 478.801 C 432.076 478.859 432 478.919 431.923 478.979 C 429.845 480.596 427.524 482.402 425.757 480.961 C 425.257 480.553 425.227 479.901 425.2 479.309 C 425.177 478.8 425.155 478.335 424.839 478.107 L 420.913 481.397 Z M 399.915 481.484 C 397.924 480.687 399.568 476.488 402.703 473.769 C 404.1 472.557 405.975 472.372 407.272 473.643 C 407.327 473.615 407.383 473.587 407.437 473.56 C 407.834 473.359 408.216 473.166 408.469 473.216 C 409.214 473.362 408.889 474.203 408.435 475.378 C 407.939 476.662 407.289 478.344 407.713 479.952 C 408.089 480.488 409.475 480.195 410.068 479.748 C 411.857 478.56 413.372 477.196 414.737 475.581 L 417.749 467.029 C 417.763 466.991 417.865 466.301 417.748 466.308 L 416.976 466.352 L 413.333 466.6 L 409.512 466.86 C 409.285 466.876 408.824 465.968 409.063 465.907 C 410.316 465.581 412.46 465.355 413.857 465.281 L 417.269 465.101 C 417.903 465.068 418.6 464.941 418.877 464.283 L 421.477 458.121 C 421.764 458.093 422.172 458.145 422.361 458.249 C 422.549 458.352 422.613 459.193 422.512 459.432 L 420.272 464.767 L 430.619 464.847 C 430.805 465.264 430.272 465.931 429.899 465.935 L 419.787 466.015 C 417.071 472.432 414.936 478.755 413.371 485.479 C 413.031 486.941 413.072 488.392 413.341 489.808 C 410.536 491.459 411.816 484.939 412.987 481.031 C 413.205 480.299 413.313 479.587 413.375 478.733 C 413.253 478.829 413.129 478.926 413.005 479.023 C 410.862 480.705 408.481 482.573 406.819 481.12 C 406.256 480.629 406.24 479.744 406.064 478.92 L 405.952 478.395 C 405.88 478.056 405.388 478.513 404.67 479.18 C 403.425 480.336 401.503 482.122 399.915 481.484 Z M 394.834 471.503 C 395.871 472.125 396.842 473.271 396.953 474.523 C 397.495 480.646 388.329 485.501 382.257 487.183 C 380.495 487.67 379.01 487.827 377.131 487.483 L 378.198 482.882 L 381.935 471.965 C 386.078 469.885 390.815 469.099 394.834 471.503 Z M 456.856 476.804 L 458.616 479.817 L 455.34 483.107 C 454.76 483.689 454.38 485.443 455.015 485.927 C 456.415 486.993 458.038 486.071 459.099 485.192 C 460.671 483.891 460.94 482.239 460.535 480.328 L 467.559 476.329 C 467.798 476.193 468.247 475.509 468.018 475.443 L 467.166 475.197 L 460.187 478.973 C 459.016 478.283 457.816 476.149 458.096 474.999 C 458.423 473.66 460.651 472.411 461.088 472.872 L 462.035 473.875 C 462.363 473.841 462.916 472.869 462.747 472.491 C 462.599 472.16 461.987 471.517 461.584 471.439 C 459.446 471.028 457.523 472.589 456.754 474.568 C 455.868 476.844 448.142 482.083 446.15 480.647 C 445.388 480.097 445.603 478.28 445.907 478.189 L 446.848 477.908 C 448.99 477.267 451.068 476.455 451.664 474.108 C 451.802 473.567 451.006 472.599 450.499 472.456 C 448.204 471.812 445.154 475.243 444.294 478.364 C 443.951 479.608 444.458 481.288 445.792 481.759 C 449.122 482.935 452.849 479.978 455.909 477.551 C 456.233 477.294 456.549 477.043 456.856 476.804 Z M 195.979 474.364 C 195.29 474.698 194.743 474.498 194.16 474.285 C 193.342 473.985 192.452 473.659 190.991 474.748 C 188.401 476.679 186.825 479.499 185.859 482.517 C 185.75 482.859 184.822 483.164 184.513 483.019 C 184.153 482.851 183.987 481.985 184.155 481.495 L 187.182 472.593 C 187.286 472.289 188.05 471.94 188.342 472.075 C 188.639 472.213 188.853 472.947 188.753 473.293 L 188.222 475.153 L 191.346 472.871 C 192.252 472.208 193.338 472.514 194.351 472.798 C 194.614 472.872 194.872 472.945 195.121 472.999 L 196.254 473.243 C 196.494 473.295 196.223 474.247 195.979 474.364 Z M 308.23 479.146 C 308.062 480.16 308.722 481.664 310.019 481.355 C 311.973 480.887 313.374 479.431 314.69 477.922 C 314.894 479.052 314.999 480.535 315.914 481.056 C 317.375 481.887 319.046 481.311 320.221 480.378 L 322.393 478.654 C 322.573 479.954 322.629 480.627 323.402 481.284 C 323.891 481.699 325.134 481.744 325.746 481.224 L 330.037 477.568 C 329.735 479.646 330.458 481.92 332.467 481.846 C 334.378 481.775 335.905 480.332 337.173 479.091 C 337.353 479.217 337.618 479.403 337.684 479.449 L 336.894 482.16 C 336.802 482.474 337.338 483.172 337.635 483.175 C 337.934 483.178 338.557 482.771 338.645 482.487 C 340.058 477.919 343.779 472.358 347.391 474.41 C 347.69 474.579 348.519 474.423 348.794 474.306 C 349.069 474.187 349.185 473.42 349.074 473.21 L 345.977 472.654 C 344.454 472.382 343.276 473.311 342.067 474.265 C 341.759 474.508 341.449 474.752 341.131 474.979 C 341.048 474.499 341.236 474 341.403 473.556 C 341.634 472.942 341.825 472.434 341.206 472.232 C 340.35 471.953 340.042 472.766 339.621 473.877 C 339.341 474.618 339.01 475.491 338.434 476.262 C 336.817 478.424 332.799 481.276 331.814 480.291 C 330.847 479.323 331.713 476.544 332.623 474.48 C 332.737 474.224 332.683 473.672 332.527 473.454 C 332.37 473.234 331.495 473.38 331.294 473.632 L 328.791 476.764 L 325.686 479.803 C 325.449 480.034 324.747 480.266 324.419 480.258 C 324.145 480.252 323.901 479.444 323.951 479.124 C 324.239 477.288 325.001 476.004 325.555 475.072 C 326.085 474.178 326.424 473.608 325.97 473.183 C 325.765 472.991 324.937 473.142 324.782 473.403 L 323.455 475.634 C 322.059 477.982 317.911 480.963 316.919 480.027 C 316.721 479.839 316.402 479.132 316.471 478.85 L 317.509 474.634 C 317.579 474.346 317.687 473.462 317.423 473.466 L 316.273 473.487 C 315.297 472.743 313.933 472.45 312.635 473.108 C 310.357 474.266 308.655 476.583 308.23 479.146 Z M 282.105 476.815 C 280.086 478.497 277.009 481.06 275.523 479.927 C 275.146 477.942 275.877 475.917 276.813 474.175 C 276.965 473.894 276.634 472.805 276.335 472.895 L 275.139 473.258 C 271.985 471.884 270.22 473.882 268.267 476.092 C 266.821 477.73 265.271 479.484 262.977 480.071 C 262.078 479.187 262.199 477.936 262.316 476.73 C 262.441 475.452 262.56 474.224 261.454 473.534 C 260.727 473.079 259.395 473.586 258.834 474.115 L 255.302 477.446 L 256.57 473.559 C 256.681 473.219 256.253 472.314 255.963 472.461 L 254.898 473.002 L 252.381 481.339 C 252.449 481.682 252.665 482.521 252.947 482.458 L 253.959 482.234 C 255.561 479.565 257.277 477.262 259.457 475.065 L 260.527 474.847 C 260.775 474.798 261.069 475.643 261.021 475.929 C 260.646 478.181 260.37 480.393 262.317 481.158 C 262.982 481.421 264.103 481.31 264.719 480.921 L 266.831 479.587 C 267.102 480.493 267.313 481.245 267.75 481.478 C 269.255 482.281 271.131 480.599 272.861 479.047 C 273.089 478.843 273.313 478.642 273.534 478.449 C 273.834 479.431 274.178 480.651 274.733 481.102 C 276.489 482.527 279.025 480.991 281.067 479.279 C 282.199 478.329 283.502 477.337 283.979 475.89 C 284.27 475.012 283.408 475.73 282.105 476.815 Z M 211.508 476.435 C 211.702 476.226 211.567 475.391 211.307 475.351 L 209.724 476.653 C 207.808 478.229 203.538 481.691 203.194 479.815 C 202.871 478.058 203.54 476.37 204.029 475.136 C 204.61 473.671 204.937 472.846 203.047 473.306 L 201.092 472.514 C 197.516 473.402 194.382 477.134 194.99 480.962 C 195.188 482.214 197.451 481.602 198.112 481.074 L 201.38 478.461 C 201.54 479.757 201.832 480.717 202.595 481.255 C 204.884 482.875 209.119 479.031 211.508 476.435 Z M 357.577 480.22 C 361.155 478.693 362.456 476.217 363.893 475.453 C 364.109 475.339 364.457 476.229 364.265 476.46 C 362.108 479.053 357.963 482.739 355.427 481.216 C 354.573 480.704 354.312 479.515 354.235 478.165 L 350.209 481.457 C 349.832 481.767 348.727 481.679 348.356 481.417 C 346.471 480.088 348.605 475.216 352.427 473.117 C 353.629 472.457 354.811 472.857 355.744 473.637 L 356.748 473.033 C 356.995 472.885 357.181 473.873 357.076 474.157 C 357.038 474.259 356.999 474.362 356.96 474.466 C 356.19 476.512 355.318 478.83 356.145 480 C 356.341 480.276 357.263 480.355 357.577 480.22 Z M 449.941 474.962 L 449.105 475.575 L 447.502 476.751 L 447.501 476.75 L 447.318 476.566 L 446.857 476.102 L 446.858 476.102 L 449.189 473.982 L 449.19 473.981 C 449.228 473.948 449.306 473.922 449.406 473.906 C 449.727 473.853 450.262 473.893 450.319 474.038 C 450.323 474.048 450.325 474.058 450.324 474.069 C 450.318 474.151 450.29 474.277 450.248 474.41 C 450.187 474.598 450.097 474.8 449.996 474.912 C 449.978 474.932 449.96 474.948 449.942 474.962 L 449.941 474.962 Z M 274.294 474.405 C 274.491 475.354 271.137 479.526 268.645 480.387 C 268.013 478.907 268.892 477.755 269.698 476.7 C 269.735 476.651 269.772 476.602 269.809 476.554 C 271.809 473.929 274.102 473.477 274.294 474.405 Z M 202.33 474.673 C 200.684 476.859 199.079 478.455 197.204 480.149 C 195.196 480.811 197.347 476.241 199.491 474.782 C 200.372 474.181 201.264 473.722 202.33 474.673 Z M 420.009 480.362 C 422.269 479.314 425.683 475.669 425.508 474.639 C 425.452 474.31 424.404 474.027 424.081 474.173 C 421.86 475.178 418.908 478.374 420.009 480.362 Z M 350.607 476.622 C 349.76 477.697 348.905 478.783 349.324 480.349 C 350.601 479.799 351.615 479.025 352.385 478.055 L 354.999 474.764 C 353.524 473.321 352.144 474.657 350.761 476.425 C 350.71 476.491 350.659 476.556 350.607 476.622 Z M 400.972 480.231 C 403.329 478.971 405.267 477.136 406.589 474.736 C 406.071 474.012 404.719 474.003 404.076 474.565 C 402.259 476.155 399.92 478.748 400.972 480.231 Z M 309.867 479.874 C 309.015 478.283 313.038 472.599 315.553 474.667 C 314.122 477.126 310.233 480.555 309.867 479.874 Z M 52.899 483.746 C 52.899 488.908 48.713 493.094 43.551 493.094 C 38.388 493.094 34.203 488.908 34.203 483.746 C 34.203 478.583 38.388 474.398 43.551 474.398 C 48.713 474.398 52.899 478.583 52.899 483.746 Z M 70.713 482.935 C 87.973 474.323 119.531 471.087 126.848 493.138 C 128.843 515.269 93.956 532.817 70.837 538.898 C 69.791 539.028 68.431 539.329 66.924 539.662 C 60.897 540.995 52.523 542.847 52.491 536.361 C 52.491 536.361 70.712 482.937 70.713 482.935 Z M 459.312 481.291 C 459.372 483.395 458.279 484.872 456.179 485.22 C 455.995 484.229 456.5 483.359 457.284 482.783 L 459.312 481.291 Z M 247.836 501.669 L 246.711 501.669 L 245.519 503.275 L 246.449 503.275 L 247.836 501.669 Z M 299.595 501.669 L 300.72 501.669 L 299.333 503.275 L 298.403 503.275 L 299.595 501.669 Z M 150.08 503.974 Q 151.99 503.974 153.133 505.257 Q 154.276 506.534 154.276 508.687 Q 154.276 510.834 153.133 512.117 Q 151.99 513.394 150.08 513.394 Q 148.165 513.394 147.015 512.117 Q 145.872 510.84 145.872 508.687 Q 145.872 506.534 147.015 505.257 Q 148.165 503.974 150.08 503.974 Z M 173.258 503.974 Q 175.167 503.974 176.311 505.257 Q 177.454 506.534 177.454 508.687 Q 177.454 510.834 176.311 512.117 Q 175.167 513.394 173.258 513.394 Q 171.342 513.394 170.193 512.117 Q 169.05 510.84 169.05 508.687 Q 169.05 506.534 170.193 505.257 Q 171.342 503.974 173.258 503.974 Z M 208.729 505.257 Q 207.586 503.974 205.677 503.974 Q 203.761 503.974 202.612 505.257 Q 201.468 506.534 201.468 508.687 Q 201.468 510.84 202.612 512.117 Q 203.761 513.394 205.677 513.394 Q 207.586 513.394 208.729 512.117 Q 209.873 510.834 209.873 508.687 Q 209.873 506.534 208.729 505.257 Z M 228.744 505.257 Q 227.6 503.974 225.691 503.974 Q 223.775 503.974 222.626 505.257 Q 221.483 506.534 221.483 508.687 Q 221.483 510.84 222.626 512.117 Q 223.775 513.394 225.691 513.394 Q 227.6 513.394 228.744 512.117 Q 229.887 510.834 229.887 508.687 Q 229.887 506.534 228.744 505.257 Z M 240.265 511.922 L 240.265 509.484 L 238.258 509.484 L 238.258 508.474 L 241.481 508.474 L 241.481 512.372 Q 240.769 512.877 239.912 513.139 Q 239.054 513.394 238.081 513.394 Q 235.953 513.394 234.749 512.153 Q 233.551 510.907 233.551 508.687 Q 233.551 506.461 234.749 505.221 Q 235.953 503.974 238.081 503.974 Q 238.969 503.974 239.766 504.193 Q 240.569 504.412 241.244 504.838 L 241.244 506.145 Q 240.563 505.567 239.796 505.275 Q 239.03 504.984 238.185 504.984 Q 236.518 504.984 235.679 505.914 Q 234.846 506.844 234.846 508.687 Q 234.846 510.524 235.679 511.454 Q 236.518 512.384 238.185 512.384 Q 238.835 512.384 239.346 512.275 Q 239.857 512.159 240.265 511.922 Z M 284.365 504.436 L 284.365 505.634 Q 283.665 505.3 283.045 505.136 Q 282.425 504.971 281.847 504.971 Q 280.844 504.971 280.296 505.361 Q 279.755 505.75 279.755 506.467 Q 279.755 507.069 280.114 507.38 Q 280.479 507.684 281.488 507.872 L 282.23 508.024 Q 283.605 508.286 284.255 508.949 Q 284.912 509.605 284.912 510.712 Q 284.912 512.032 284.024 512.713 Q 283.143 513.394 281.434 513.394 Q 280.789 513.394 280.059 513.248 Q 279.336 513.102 278.557 512.816 L 278.557 511.551 Q 279.305 511.971 280.023 512.184 Q 280.74 512.397 281.434 512.397 Q 282.486 512.397 283.057 511.983 Q 283.629 511.57 283.629 510.803 Q 283.629 510.134 283.215 509.757 Q 282.808 509.38 281.872 509.192 L 281.124 509.046 Q 279.749 508.772 279.135 508.188 Q 278.521 507.605 278.521 506.565 Q 278.521 505.361 279.366 504.667 Q 280.217 503.974 281.707 503.974 Q 282.346 503.974 283.009 504.09 Q 283.672 504.205 284.365 504.436 Z M 326.385 506.133 L 326.385 504.838 Q 325.752 504.406 325.028 504.193 Q 324.311 503.974 323.496 503.974 Q 321.434 503.974 320.249 505.239 Q 319.063 506.498 319.063 508.687 Q 319.063 510.87 320.249 512.135 Q 321.434 513.394 323.496 513.394 Q 324.299 513.394 325.016 513.175 Q 325.74 512.956 326.385 512.518 L 326.385 511.235 Q 325.764 511.813 325.059 512.099 Q 324.359 512.384 323.569 512.384 Q 322.012 512.384 321.185 511.436 Q 320.358 510.481 320.358 508.687 Q 320.358 506.887 321.185 505.938 Q 322.012 504.984 323.569 504.984 Q 324.359 504.984 325.059 505.269 Q 325.764 505.555 326.385 506.133 Z M 386.927 504.436 L 386.927 505.634 Q 386.227 505.3 385.607 505.136 Q 384.987 504.971 384.409 504.971 Q 383.406 504.971 382.858 505.361 Q 382.317 505.75 382.317 506.467 Q 382.317 507.069 382.676 507.38 Q 383.041 507.684 384.05 507.872 L 384.792 508.024 Q 386.167 508.286 386.817 508.949 Q 387.474 509.605 387.474 510.712 Q 387.474 512.032 386.586 512.713 Q 385.704 513.394 383.996 513.394 Q 383.351 513.394 382.621 513.248 Q 381.898 513.102 381.119 512.816 L 381.119 511.551 Q 381.867 511.971 382.585 512.184 Q 383.302 512.397 383.996 512.397 Q 385.048 512.397 385.619 511.983 Q 386.191 511.57 386.191 510.803 Q 386.191 510.134 385.777 509.757 Q 385.37 509.38 384.434 509.192 L 383.686 509.046 Q 382.311 508.772 381.697 508.188 Q 381.083 507.605 381.083 506.565 Q 381.083 505.361 381.928 504.667 Q 382.779 503.974 384.269 503.974 Q 384.908 503.974 385.571 504.09 Q 386.234 504.205 386.927 504.436 Z M 456.472 505.257 Q 455.329 503.974 453.419 503.974 Q 451.504 503.974 450.355 505.257 Q 449.211 506.534 449.211 508.687 Q 449.211 510.84 450.355 512.117 Q 451.504 513.394 453.419 513.394 Q 455.329 513.394 456.472 512.117 Q 457.616 510.834 457.616 508.687 Q 457.616 506.534 456.472 505.257 Z M 160.987 504.138 L 158.463 504.138 L 158.463 513.218 L 160.987 513.218 Q 163.614 513.218 164.855 512.117 Q 166.095 511.016 166.095 508.669 Q 166.095 506.334 164.861 505.239 Q 163.626 504.138 160.987 504.138 Z M 183.295 504.138 L 181.641 504.138 L 181.641 513.218 L 182.833 513.218 L 182.833 505.622 L 186.859 513.218 L 188.513 513.218 L 188.513 504.138 L 187.321 504.138 L 187.321 511.734 L 183.295 504.138 Z M 191.952 504.138 L 199.633 504.138 L 199.633 505.172 L 196.41 505.172 L 196.41 513.218 L 195.175 513.218 L 195.175 505.172 L 191.952 505.172 L 191.952 504.138 Z M 214.06 504.138 L 215.288 504.138 L 215.288 512.184 L 219.709 512.184 L 219.709 513.218 L 214.06 513.218 L 214.06 504.138 Z M 246.984 504.138 L 245.756 504.138 L 245.756 513.218 L 246.984 513.218 L 246.984 504.138 Z M 253.303 504.138 L 254.696 504.138 L 258.156 513.218 L 256.879 513.218 L 256.052 510.888 L 251.959 510.888 L 251.132 513.218 L 249.837 513.218 L 253.303 504.138 Z M 275.758 504.138 L 270.017 504.138 L 270.017 513.218 L 275.867 513.218 L 275.867 512.184 L 271.246 512.184 L 271.246 508.894 L 275.569 508.894 L 275.569 507.86 L 271.246 507.86 L 271.246 505.172 L 275.758 505.172 L 275.758 504.138 Z M 293.8 504.138 L 286.12 504.138 L 286.12 505.172 L 289.343 505.172 L 289.343 513.218 L 290.577 513.218 L 290.577 505.172 L 293.8 505.172 L 293.8 504.138 Z M 296.408 504.138 L 302.149 504.138 L 302.149 505.172 L 297.637 505.172 L 297.637 507.86 L 301.96 507.86 L 301.96 508.894 L 297.637 508.894 L 297.637 512.184 L 302.258 512.184 L 302.258 513.218 L 296.408 513.218 L 296.408 504.138 Z M 311.772 504.138 L 304.092 504.138 L 304.092 505.172 L 307.315 505.172 L 307.315 513.218 L 308.549 513.218 L 308.549 505.172 L 311.772 505.172 L 311.772 504.138 Z M 314.38 504.138 L 315.608 504.138 L 315.608 513.218 L 314.38 513.218 L 314.38 504.138 Z M 332.912 504.138 L 334.304 504.138 L 337.765 513.218 L 336.488 513.218 L 335.661 510.888 L 331.568 510.888 L 330.741 513.218 L 329.445 513.218 L 332.912 504.138 Z M 349.699 504.138 L 348.379 504.138 L 351.59 508.894 L 351.59 513.218 L 352.824 513.218 L 352.824 508.894 L 356.035 504.138 L 354.716 504.138 L 352.216 507.872 L 349.699 504.138 Z M 367.519 508.961 Q 367.914 509.095 368.285 509.532 Q 368.662 509.97 369.039 510.736 L 370.286 513.218 L 368.966 513.218 L 367.805 510.888 Q 367.355 509.976 366.929 509.678 Q 366.51 509.38 365.78 509.38 L 364.442 509.38 L 364.442 513.218 L 363.214 513.218 L 363.214 504.138 L 365.987 504.138 Q 367.543 504.138 368.31 504.789 Q 369.076 505.44 369.076 506.753 Q 369.076 507.611 368.674 508.176 Q 368.279 508.742 367.519 508.961 Z M 378.32 504.138 L 372.579 504.138 L 372.579 513.218 L 378.429 513.218 L 378.429 512.184 L 373.808 512.184 L 373.808 508.894 L 378.131 508.894 L 378.131 507.86 L 373.808 507.86 L 373.808 505.172 L 378.32 505.172 L 378.32 504.138 Z M 396.362 504.138 L 388.682 504.138 L 388.682 505.172 L 391.905 505.172 L 391.905 513.218 L 393.139 513.218 L 393.139 505.172 L 396.362 505.172 L 396.362 504.138 Z M 400.564 504.138 L 401.957 504.138 L 405.417 513.218 L 404.14 513.218 L 403.313 510.888 L 399.22 510.888 L 398.393 513.218 L 397.098 513.218 L 400.564 504.138 Z M 409.269 504.138 L 408.034 504.138 L 408.034 509.806 Q 408.034 511.582 408.91 512.488 Q 409.792 513.394 411.512 513.394 Q 413.227 513.394 414.103 512.488 Q 414.985 511.582 414.985 509.806 L 414.985 504.138 L 413.75 504.138 L 413.75 509.654 Q 413.75 511.113 413.221 511.758 Q 412.692 512.397 411.512 512.397 Q 410.327 512.397 409.798 511.758 Q 409.269 511.113 409.269 509.654 L 409.269 504.138 Z M 423.365 508.961 Q 423.76 509.095 424.131 509.532 Q 424.508 509.97 424.885 510.736 L 426.132 513.218 L 424.812 513.218 L 423.65 510.888 Q 423.2 509.976 422.775 509.678 Q 422.355 509.38 421.625 509.38 L 420.287 509.38 L 420.287 513.218 L 419.059 513.218 L 419.059 504.138 L 421.832 504.138 Q 423.389 504.138 424.155 504.789 Q 424.921 505.44 424.921 506.753 Q 424.921 507.611 424.52 508.176 Q 424.125 508.742 423.365 508.961 Z M 432.345 504.138 L 430.953 504.138 L 427.487 513.218 L 428.782 513.218 L 429.609 510.888 L 433.702 510.888 L 434.529 513.218 L 435.806 513.218 L 432.345 504.138 Z M 438.625 504.138 L 441.149 504.138 Q 443.788 504.138 445.022 505.239 Q 446.257 506.334 446.257 508.669 Q 446.257 511.016 445.016 512.117 Q 443.776 513.218 441.149 513.218 L 438.625 513.218 L 438.625 504.138 Z M 466.108 508.961 Q 466.503 509.095 466.874 509.532 Q 467.251 509.97 467.628 510.736 L 468.875 513.218 L 467.555 513.218 L 466.394 510.888 Q 465.944 509.976 465.518 509.678 Q 465.099 509.38 464.369 509.38 L 463.031 509.38 L 463.031 513.218 L 461.803 513.218 L 461.803 504.138 L 464.576 504.138 Q 466.132 504.138 466.899 504.789 Q 467.665 505.44 467.665 506.753 Q 467.665 507.611 467.263 508.176 Q 466.868 508.742 466.108 508.961 Z M 475.089 504.138 L 473.696 504.138 L 470.23 513.218 L 471.525 513.218 L 472.352 510.888 L 476.445 510.888 L 477.272 513.218 L 478.549 513.218 L 475.089 504.138 Z M 150.08 504.971 Q 148.742 504.971 147.952 505.969 Q 147.167 506.966 147.167 508.687 Q 147.167 510.402 147.952 511.399 Q 148.742 512.397 150.08 512.397 Q 151.418 512.397 152.196 511.399 Q 152.981 510.402 152.981 508.687 Q 152.981 506.966 152.196 505.969 Q 151.418 504.971 150.08 504.971 Z M 173.258 504.971 Q 171.92 504.971 171.129 505.969 Q 170.345 506.966 170.345 508.687 Q 170.345 510.402 171.129 511.399 Q 171.92 512.397 173.258 512.397 Q 174.596 512.397 175.374 511.399 Q 176.158 510.402 176.158 508.687 Q 176.158 506.966 175.374 505.969 Q 174.596 504.971 173.258 504.971 Z M 203.548 505.969 Q 204.339 504.971 205.677 504.971 Q 207.014 504.971 207.793 505.969 Q 208.577 506.966 208.577 508.687 Q 208.577 510.402 207.793 511.399 Q 207.014 512.397 205.677 512.397 Q 204.339 512.397 203.548 511.399 Q 202.764 510.402 202.764 508.687 Q 202.764 506.966 203.548 505.969 Z M 223.562 505.969 Q 224.353 504.971 225.691 504.971 Q 227.029 504.971 227.807 505.969 Q 228.592 506.966 228.592 508.687 Q 228.592 510.402 227.807 511.399 Q 227.029 512.397 225.691 512.397 Q 224.353 512.397 223.562 511.399 Q 222.778 510.402 222.778 508.687 Q 222.778 506.966 223.562 505.969 Z M 451.291 505.969 Q 452.082 504.971 453.419 504.971 Q 454.757 504.971 455.536 505.969 Q 456.32 506.966 456.32 508.687 Q 456.32 510.402 455.536 511.399 Q 454.757 512.397 453.419 512.397 Q 452.082 512.397 451.291 511.399 Q 450.507 510.402 450.507 508.687 Q 450.507 506.966 451.291 505.969 Z M 159.692 512.208 L 159.692 505.148 L 161.175 505.148 Q 163.055 505.148 163.924 505.999 Q 164.8 506.844 164.8 508.669 Q 164.8 510.505 163.924 511.357 Q 163.055 512.208 161.175 512.208 L 159.692 512.208 Z M 364.442 505.148 L 364.442 508.371 L 365.987 508.371 Q 366.874 508.371 367.324 507.963 Q 367.781 507.55 367.781 506.753 Q 367.781 505.957 367.324 505.555 Q 366.874 505.148 365.987 505.148 L 364.442 505.148 Z M 420.287 505.148 L 420.287 508.371 L 421.832 508.371 Q 422.72 508.371 423.17 507.963 Q 423.626 507.55 423.626 506.753 Q 423.626 505.957 423.17 505.555 Q 422.72 505.148 421.832 505.148 L 420.287 505.148 Z M 439.853 505.148 L 439.853 512.208 L 441.337 512.208 Q 443.216 512.208 444.086 511.357 Q 444.962 510.505 444.962 508.669 Q 444.962 506.844 444.086 505.999 Q 443.216 505.148 441.337 505.148 L 439.853 505.148 Z M 463.031 505.148 L 463.031 508.371 L 464.576 508.371 Q 465.463 508.371 465.913 507.963 Q 466.37 507.55 466.37 506.753 Q 466.37 505.957 465.913 505.555 Q 465.463 505.148 464.576 505.148 L 463.031 505.148 Z M 253.997 505.348 L 252.33 509.867 L 255.669 509.867 L 253.997 505.348 Z M 333.605 505.348 L 331.939 509.867 L 335.277 509.867 L 333.605 505.348 Z M 401.257 505.348 L 399.591 509.867 L 402.93 509.867 L 401.257 505.348 Z M 429.98 509.867 L 431.646 505.348 L 433.318 509.867 L 429.98 509.867 Z M 472.723 509.867 L 474.39 505.348 L 476.062 509.867 L 472.723 509.867 Z"/>
</svg>
